<?xml version="1.0" standalone="no"?>
<!DOCTYPE svg PUBLIC "-//W3C//DTD SVG 20010904//EN"
 "http://www.w3.org/TR/2001/REC-SVG-20010904/DTD/svg10.dtd">
<svg version="1.0" xmlns="http://www.w3.org/2000/svg"
 width="3560.000000pt" height="654.000000pt" viewBox="0 0 3560.000000 654.000000"
 preserveAspectRatio="xMidYMid meet">

<g transform="translate(0.000000,654.000000) scale(0.100000,-0.100000)"
fill="#000000" stroke="none">
<path d="M4085 6529 c-956 -21 -1673 -106 -2115 -251 -166 -54 -249 -107 -344
-218 -63 -73 -110 -169 -161 -324 -101 -306 -169 -651 -191 -969 -4 -58 -11
-100 -18 -102 -29 -8 -340 -64 -343 -62 -1 2 4 22 12 45 67 193 -20 400 -205
490 -260 126 -586 -17 -665 -292 -25 -85 -17 -203 18 -279 35 -76 124 -165
200 -197 31 -14 57 -28 57 -31 0 -3 -16 -27 -35 -52 -54 -71 -99 -172 -133
-297 -217 -807 -143 -1669 208 -2420 l68 -145 37 -428 c25 -300 42 -449 56
-500 62 -221 223 -398 424 -464 75 -24 95 -26 315 -31 271 -5 355 4 445 49
107 52 200 160 247 284 22 58 23 72 26 499 l3 439 237 -6 c130 -4 1306 -9
2612 -13 1306 -3 2381 -7 2388 -9 9 -4 12 -95 12 -413 0 -344 2 -417 16 -463
57 -195 207 -332 394 -360 115 -17 529 -7 600 16 232 73 398 258 455 509 8 34
30 248 50 476 l36 415 56 119 c305 656 405 1330 302 2041 -51 355 -129 601
-225 713 -19 22 -34 42 -34 45 0 3 13 8 30 12 44 10 142 77 178 123 18 22 45
67 60 99 24 51 27 70 27 158 0 92 -3 106 -32 168 -114 241 -402 348 -639 238
-186 -87 -275 -287 -215 -481 19 -61 19 -62 0 -57 -11 3 -88 18 -172 33 -83
15 -155 30 -159 33 -3 3 -11 67 -18 141 -30 361 -130 808 -237 1065 -56 134
-162 261 -277 329 -215 129 -857 248 -1586 295 -468 31 -1189 43 -1765 30z
m1475 -419 c342 -12 646 -33 870 -60 336 -41 606 -100 710 -157 145 -78 280
-204 334 -311 37 -73 124 -352 151 -486 26 -124 43 -342 28 -363 -6 -8 -37 -8
-128 2 -176 20 -447 42 -725 59 -753 47 -1427 60 -2655 53 -1188 -7 -1697 -22
-2200 -63 -99 -8 -215 -17 -258 -21 l-79 -6 7 104 c19 292 87 574 185 769 41
81 147 188 250 252 122 76 189 93 485 122 502 50 1036 88 1470 105 299 12
1230 12 1555 1z m-3900 -1986 c256 -62 470 -276 534 -535 21 -85 21 -252 0
-338 -80 -326 -372 -552 -714 -552 -410 0 -730 316 -730 721 0 363 261 663
625 719 75 12 200 5 285 -15z m6346 -4 c209 -54 394 -213 483 -414 134 -306
30 -676 -245 -872 -131 -94 -269 -137 -434 -136 -209 1 -366 67 -515 217 -100
99 -146 175 -187 305 -19 62 -23 97 -23 200 0 142 19 221 83 345 53 102 191
237 297 292 177 91 351 111 541 63z m-1485 -1160 c46 -13 88 -58 95 -101 7
-49 -18 -82 -132 -178 -422 -352 -936 -556 -1547 -612 -188 -17 -593 -6 -772
21 -566 85 -1058 311 -1407 646 -41 39 -68 74 -69 87 -4 67 16 101 74 128 41
18 98 19 1882 19 1182 0 1853 -4 1876 -10z"/>
<path d="M17915 6485 c-297 -65 -504 -307 -522 -610 -18 -307 192 -592 492
-670 79 -21 232 -21 319 -1 207 49 398 223 467 427 79 238 18 497 -158 672
-162 161 -385 229 -598 182z"/>
<path d="M15140 3250 l0 -3120 650 0 650 0 0 3120 0 3120 -650 0 -650 0 0
-3120z"/>
<path d="M31929 4805 c-3 -2 -113 -7 -244 -10 -343 -9 -506 -40 -696 -136
-258 -129 -522 -431 -684 -782 -22 -47 -43 -86 -47 -87 -5 0 -8 207 -8 460 l0
460 -645 0 -645 0 0 -2290 0 -2290 645 0 645 0 0 823 c0 837 3 974 21 1177 29
316 118 590 259 794 102 147 300 312 463 385 176 79 361 120 580 128 l147 6 9
36 c6 20 82 320 171 666 88 347 163 638 166 648 5 15 -3 17 -64 17 -38 0 -71
-2 -73 -5z"/>
<path d="M12430 4784 c-103 -10 -303 -47 -410 -75 -569 -151 -1064 -518 -1372
-1016 -177 -285 -300 -628 -344 -958 -25 -191 -23 -505 5 -693 40 -266 101
-461 221 -707 230 -470 589 -828 1065 -1061 232 -113 455 -182 714 -221 162
-25 594 -24 771 0 277 39 478 99 676 202 235 122 479 303 676 502 l108 108
-379 379 -379 379 -29 -24 c-403 -330 -584 -421 -900 -451 -360 -34 -689 79
-933 322 -169 168 -273 370 -332 644 -32 147 -32 455 0 603 58 266 168 478
337 648 200 200 427 300 706 312 390 17 677 -102 1002 -416 86 -84 88 -85 106
-66 10 11 173 187 361 390 189 204 359 387 379 408 l36 39 -115 110 c-319 306
-677 504 -1065 588 -191 41 -301 51 -585 55 -151 1 -295 1 -320 -1z"/>
<path d="M21487 4775 c-535 -65 -1019 -297 -1387 -665 -344 -344 -571 -790
-661 -1295 -27 -153 -37 -497 -20 -671 71 -702 447 -1331 1026 -1715 134 -89
349 -199 499 -254 128 -47 331 -98 481 -121 170 -26 596 -26 780 -1 422 60
695 174 1045 438 126 95 340 286 381 340 l26 34 -376 380 -376 381 -105 -89
c-250 -209 -475 -331 -691 -372 -529 -100 -1020 120 -1262 565 -210 386 -219
924 -21 1323 60 121 115 198 212 299 258 267 583 371 981 312 257 -38 451
-142 726 -390 l102 -93 234 252 c483 518 549 590 549 597 0 16 -234 232 -328
302 -439 331 -861 460 -1494 457 -117 -1 -261 -7 -321 -14z"/>
<path d="M33594 4770 c-451 -35 -809 -182 -1078 -441 -269 -258 -398 -552
-413 -939 -16 -411 82 -678 346 -941 232 -230 444 -335 1086 -534 591 -183
693 -225 793 -323 120 -117 125 -281 13 -404 -87 -96 -202 -135 -417 -145
-211 -9 -420 23 -664 103 -197 65 -324 142 -515 313 -43 39 -82 71 -85 70 -5
0 -656 -747 -678 -778 -12 -17 1 -29 140 -134 339 -255 528 -354 857 -446 328
-93 584 -126 921 -118 313 7 486 36 730 119 506 173 814 504 921 991 26 119
37 445 19 568 -45 314 -234 587 -552 800 -209 139 -400 222 -926 400 -448 152
-633 236 -742 341 -65 62 -83 104 -83 190 0 163 117 272 329 309 104 18 325 6
458 -25 233 -55 542 -177 801 -316 102 -55 132 -67 141 -57 7 6 143 201 304
432 l291 420 -28 23 c-89 72 -539 268 -838 365 -400 130 -787 183 -1131 157z"/>
<path d="M25766 4750 c-390 -26 -680 -84 -1061 -214 -141 -47 -364 -132 -373
-141 -2 -2 153 -191 344 -422 191 -230 348 -419 349 -421 1 -1 27 7 58 17 30
11 65 17 76 14 11 -3 84 7 163 21 79 14 191 30 249 36 158 16 497 13 609 -4
307 -47 521 -183 630 -400 57 -114 81 -215 87 -374 l6 -132 -44 16 c-159 56
-455 126 -644 151 -186 24 -670 24 -845 0 -871 -122 -1361 -557 -1431 -1267
-45 -466 83 -859 374 -1149 215 -213 472 -340 817 -403 167 -30 489 -36 671
-13 395 50 704 197 1002 475 l87 82 0 -246 0 -246 625 0 626 0 -4 1493 c-3
1649 1 1545 -68 1827 -123 501 -404 876 -808 1079 -209 106 -427 167 -732 206
-138 18 -583 27 -763 15z m565 -2615 c188 -22 324 -56 513 -127 l78 -30 -5
-187 c-4 -159 -8 -198 -28 -266 -85 -282 -327 -480 -684 -560 -111 -25 -400
-31 -509 -11 -349 66 -532 278 -512 591 10 165 59 278 165 378 91 85 225 154
371 189 160 38 405 47 611 23z"/>
<path d="M17420 2420 l0 -2290 645 0 645 0 0 2290 0 2290 -645 0 -645 0 0
-2290z"/>
</g>
</svg>
